<svg width="1441" height="940" viewBox="0 0 1441 940" fill="none" xmlns="http://www.w3.org/2000/svg">
<rect width="1441" height="940" fill="white"/>
<g clip-path="url(#clip0)">
<path d="M22.3333 881H-41C-42.1046 881 -43 881.895 -43 883V939.667C-43 940.771 -42.1046 941.667 -41 941.667H22.3333C23.4379 941.667 24.3333 940.771 24.3333 939.667V883C24.3333 881.895 23.4379 881 22.3333 881Z" fill="#BC4242"/>
<path d="M39.1666 896.167H-24.1667C-25.2713 896.167 -26.1667 897.062 -26.1667 898.167V954.833C-26.1667 955.938 -25.2713 956.833 -24.1667 956.833H39.1666C40.2712 956.833 41.1666 955.938 41.1666 954.833V898.167C41.1666 897.062 40.2712 896.167 39.1666 896.167Z" fill="#AE2121"/>
<path d="M56 911.333H-7.33331C-8.43788 911.333 -9.33331 912.229 -9.33331 913.333V970C-9.33331 971.105 -8.43788 972 -7.33331 972H56C57.1046 972 58 971.105 58 970V913.333C58 912.229 57.1046 911.333 56 911.333Z" fill="#862929"/>
</g>
<g clip-path="url(#clip1)">
<path d="M1439.67 -5H1379C1377.9 -5 1377 -4.10457 1377 -3V51C1377 52.1046 1377.9 53 1379 53H1439.67C1440.77 53 1441.67 52.1046 1441.67 51V-3C1441.67 -4.10457 1440.77 -5 1439.67 -5Z" fill="#BC4242"/>
<path d="M1455.83 9.5H1395.17C1394.06 9.5 1393.17 10.3954 1393.17 11.5V65.5C1393.17 66.6046 1394.06 67.5 1395.17 67.5H1455.83C1456.94 67.5 1457.83 66.6046 1457.83 65.5V11.5C1457.83 10.3954 1456.94 9.5 1455.83 9.5Z" fill="#AE2121"/>
<path d="M1472 24H1411.33C1410.23 24 1409.33 24.8954 1409.33 26V80C1409.33 81.1046 1410.23 82 1411.33 82H1472C1473.1 82 1474 81.1046 1474 80V26C1474 24.8954 1473.1 24 1472 24Z" fill="#862929"/>
</g>
<defs>
<clipPath id="clip0">
<rect width="58" height="59" fill="white" transform="translate(0 881)"/>
</clipPath>
<clipPath id="clip1">
<rect width="64" height="82" fill="white" transform="translate(1377)"/>
</clipPath>
</defs>
</svg>
