<svg width="360" height="640" viewBox="0 0 360 640" fill="none" xmlns="http://www.w3.org/2000/svg">
<g clip-path="url(#clip0)">
<rect width="360" height="640" fill="#F9F9F9"/>
<rect x="-43" y="581" width="67.3333" height="60.6667" rx="2" fill="#BC4242"/>
<rect x="-26.1667" y="596.167" width="67.3333" height="60.6667" rx="2" fill="#AE2121"/>
<rect x="-9.33334" y="611.333" width="67.3333" height="60.6667" rx="2" fill="#862929"/>
<rect x="328" y="611" width="64.6667" height="58" rx="2" fill="#BC4242"/>
<rect x="344.167" y="625.5" width="64.6667" height="58" rx="2" fill="#AE2121"/>
<rect width="360" height="10" fill="#862929"/>
<rect x="210" y="50" width="120" height="120" rx="5" fill="#C1C1C1"/>
<rect x="200" y="60" width="120" height="120" rx="5" fill="#E8E8E8"/>
<line x1="240" y1="120.5" x2="280" y2="120.5" stroke="#862929" stroke-width="5"/>
<line x1="259.5" y1="100" x2="259.5" y2="140" stroke="#862929" stroke-width="5"/>
<rect x="39" y="50" width="120" height="120" rx="5" fill="#862929"/>
<rect x="30" y="60" width="120" height="120" rx="5" fill="#AE2121"/>
</g>
<defs>
<clipPath id="clip0">
<rect width="360" height="640" fill="white"/>
</clipPath>
</defs>
</svg>
