<svg width="100" height="100" viewBox="0 0 100 100" fill="none" xmlns="http://www.w3.org/2000/svg">
<rect x="13.4199" width="86.5801" height="85.8369" rx="5" fill="#BC4242"/>
<rect x="7.35931" y="7.29614" width="86.5801" height="85.8369" rx="5" fill="#AE2121"/>
<rect y="14.1631" width="86.5801" height="85.8369" rx="5" fill="#862929"/>
<path d="M23.582 71V69.9629C23.793 69.8223 24.0215 69.7227 24.2676 69.6641C24.5254 69.6055 24.7656 69.5352 24.9883 69.4531C25.5391 69.2773 25.8496 68.9551 25.9199 68.4863C26.002 68.0176 26.043 67.4141 26.043 66.6758V50.3281C26.043 48.957 25.8906 48.1484 25.5859 47.9023C25.3398 47.7031 24.9941 47.5508 24.5488 47.4453C24.1152 47.3281 23.793 47.1992 23.582 47.0586V46.0215H33.0215V47.0586C32.7637 47.1992 32.5 47.3047 32.2305 47.375C31.9609 47.4336 31.709 47.5039 31.4746 47.5859C30.9238 47.7852 30.6191 48.1016 30.5605 48.5352C30.4785 49.0039 30.4375 49.5898 30.4375 50.293V71H23.582ZM31.8965 69.541C32.0723 69.5527 32.2539 69.5586 32.4414 69.5586H33.0215C35.2246 69.5586 36.8125 68.8672 37.7852 67.4844C38.2188 66.8516 38.5586 66.1309 38.8047 65.3223C39.0508 64.502 39.2266 63.9453 39.332 63.6523C39.5547 63.0195 39.8301 62.4922 40.1582 62.0703H41.2656V71H31.8965V69.541ZM54.5723 63.0723H49.2285L49.668 61.4551H54.0449L54.5723 63.0723ZM51.0918 53.3691L46.9609 65.709C46.5977 66.752 46.4219 67.5371 46.4336 68.0645C46.4453 68.5801 46.5273 68.9199 46.6797 69.084C46.832 69.248 47.0312 69.3652 47.2773 69.4355C47.5234 69.5059 47.8047 69.5645 48.1211 69.6113C48.4375 69.6582 48.7598 69.7637 49.0879 69.9277V71H41.4414V69.9277C41.6875 69.7871 41.9453 69.6758 42.2148 69.5938C42.4844 69.5117 42.7422 69.418 42.9883 69.3125C43.5625 69.0547 43.9316 68.668 44.0957 68.1523L50.0371 50.5215L51.0918 53.3691ZM50.6523 48.7285C50.0195 48.5059 49.5918 48.2832 49.3691 48.0605C49.3926 47.8145 49.4219 47.5859 49.457 47.375C49.5039 47.1523 49.5449 46.9355 49.5801 46.7246C49.627 46.502 49.6738 46.3203 49.7207 46.1797C51.9473 45.7109 53.2363 45.4766 53.5879 45.4766C53.834 45.6758 54.0625 46.0449 54.2734 46.584L61.9902 67.8711C62.248 68.5742 62.6348 69.0547 63.1504 69.3125C63.3848 69.4297 63.6309 69.5293 63.8887 69.6113C64.1582 69.6816 64.4395 69.7871 64.7324 69.9277V71H55.2227V69.9277C55.4922 69.7988 55.7734 69.7109 56.0664 69.6641C56.3594 69.6055 56.6289 69.5469 56.875 69.4883C57.4141 69.3594 57.6836 69.0957 57.6836 68.6973C57.6836 68.3457 57.4023 67.3965 56.8398 65.8496C56.2773 64.3027 55.7793 62.9258 55.3457 61.7188C54.1387 58.332 52.9551 54.9453 51.7949 51.5586L50.6523 48.7285Z" fill="white"/>
</svg>
