<svg width="444" height="100" viewBox="0 0 444 100" fill="none" xmlns="http://www.w3.org/2000/svg">
<rect x="13.4199" width="86.5801" height="85.8369" rx="5" fill="#BC4242"/>
<rect x="7.35931" y="7.29614" width="86.5801" height="85.8369" rx="5" fill="#AE2121"/>
<rect y="14.1631" width="86.5801" height="85.8369" rx="5" fill="#862929"/>
<path d="M23.582 71V69.9629C23.793 69.8223 24.0215 69.7227 24.2676 69.6641C24.5254 69.6055 24.7656 69.5352 24.9883 69.4531C25.5391 69.2773 25.8496 68.9551 25.9199 68.4863C26.002 68.0176 26.043 67.4141 26.043 66.6758V50.3281C26.043 48.957 25.8906 48.1484 25.5859 47.9023C25.3398 47.7031 24.9941 47.5508 24.5488 47.4453C24.1152 47.3281 23.793 47.1992 23.582 47.0586V46.0215H33.0215V47.0586C32.7637 47.1992 32.5 47.3047 32.2305 47.375C31.9609 47.4336 31.709 47.5039 31.4746 47.5859C30.9238 47.7852 30.6191 48.1016 30.5605 48.5352C30.4785 49.0039 30.4375 49.5898 30.4375 50.293V71H23.582ZM31.8965 69.541C32.0723 69.5527 32.2539 69.5586 32.4414 69.5586H33.0215C35.2246 69.5586 36.8125 68.8672 37.7852 67.4844C38.2188 66.8516 38.5586 66.1309 38.8047 65.3223C39.0508 64.502 39.2266 63.9453 39.332 63.6523C39.5547 63.0195 39.8301 62.4922 40.1582 62.0703H41.2656V71H31.8965V69.541ZM54.5723 63.0723H49.2285L49.668 61.4551H54.0449L54.5723 63.0723ZM51.0918 53.3691L46.9609 65.709C46.5977 66.752 46.4219 67.5371 46.4336 68.0645C46.4453 68.5801 46.5273 68.9199 46.6797 69.084C46.832 69.248 47.0312 69.3652 47.2773 69.4355C47.5234 69.5059 47.8047 69.5645 48.1211 69.6113C48.4375 69.6582 48.7598 69.7637 49.0879 69.9277V71H41.4414V69.9277C41.6875 69.7871 41.9453 69.6758 42.2148 69.5938C42.4844 69.5117 42.7422 69.418 42.9883 69.3125C43.5625 69.0547 43.9316 68.668 44.0957 68.1523L50.0371 50.5215L51.0918 53.3691ZM50.6523 48.7285C50.0195 48.5059 49.5918 48.2832 49.3691 48.0605C49.3926 47.8145 49.4219 47.5859 49.457 47.375C49.5039 47.1523 49.5449 46.9355 49.5801 46.7246C49.627 46.502 49.6738 46.3203 49.7207 46.1797C51.9473 45.7109 53.2363 45.4766 53.5879 45.4766C53.834 45.6758 54.0625 46.0449 54.2734 46.584L61.9902 67.8711C62.248 68.5742 62.6348 69.0547 63.1504 69.3125C63.3848 69.4297 63.6309 69.5293 63.8887 69.6113C64.1582 69.6816 64.4395 69.7871 64.7324 69.9277V71H55.2227V69.9277C55.4922 69.7988 55.7734 69.7109 56.0664 69.6641C56.3594 69.6055 56.6289 69.5469 56.875 69.4883C57.4141 69.3594 57.6836 69.0957 57.6836 68.6973C57.6836 68.3457 57.4023 67.3965 56.8398 65.8496C56.2773 64.3027 55.7793 62.9258 55.3457 61.7188C54.1387 58.332 52.9551 54.9453 51.7949 51.5586L50.6523 48.7285Z" fill="white"/>
<path d="M121.812 76V74.1562C122.188 73.9062 122.594 73.7292 123.031 73.625C123.49 73.5208 123.917 73.3958 124.312 73.25C125.292 72.9375 125.844 72.3646 125.969 71.5312C126.115 70.6979 126.188 69.625 126.188 68.3125V39.25C126.188 36.8125 125.917 35.375 125.375 34.9375C124.938 34.5833 124.323 34.3125 123.531 34.125C122.76 33.9167 122.188 33.6875 121.812 33.4375V31.5938H138.594V33.4375C138.135 33.6875 137.667 33.875 137.188 34C136.708 34.1042 136.26 34.2292 135.844 34.375C134.865 34.7292 134.323 35.2917 134.219 36.0625C134.073 36.8958 134 37.9375 134 39.1875V76H121.812ZM136.594 73.4062C136.906 73.4271 137.229 73.4375 137.562 73.4375H138.594C142.51 73.4375 145.333 72.2083 147.062 69.75C147.833 68.625 148.438 67.3438 148.875 65.9062C149.312 64.4479 149.625 63.4583 149.812 62.9375C150.208 61.8125 150.698 60.875 151.281 60.125H153.25V76H136.594V73.4062ZM157.312 76V74.1562C157.812 73.8438 158.375 73.6042 159 73.4375C159.646 73.2708 160.104 73.1146 160.375 72.9688C160.646 72.8229 160.875 72.5938 161.062 72.2812C161.479 71.6354 161.688 70.4479 161.688 68.7188V38.9375C161.688 37.1875 161.531 36.0729 161.219 35.5938C160.927 35.1146 160.646 34.8125 160.375 34.6875C160.125 34.5417 159.833 34.4167 159.5 34.3125C158.458 34.0208 157.729 33.7292 157.312 33.4375V31.5938H169.469V76H157.312ZM172.062 73.4375L172.656 73.4688C177.344 73.4688 180.667 72.9792 182.625 72C184.688 70.9583 186.146 68.8958 187 65.8125C187.188 65.1667 187.344 64.5833 187.469 64.0625C187.615 63.5208 187.771 63.0312 187.938 62.5938C188.25 61.6771 188.688 60.9375 189.25 60.375H191.281V76H172.062V73.4375ZM183.625 31.5938C184.917 31.5938 187 31.4375 189.875 31.125V46.4375H187.688C186.958 45.5 186.396 44.4479 186 43.2812C185.604 42.1146 185.198 40.9792 184.781 39.875C184.365 38.7708 183.948 37.8854 183.531 37.2188C183.115 36.5521 182.594 35.9896 181.969 35.5312C180.719 34.6146 179.021 34.1562 176.875 34.1562C174.75 34.1562 173.146 34.3125 172.062 34.625V31.5938H183.625ZM172.062 49.5625H181.188V55.4375H172.062V49.5625ZM222.125 60L230.531 31.5938H244.562V33.4375C244.062 33.6875 243.562 33.8854 243.062 34.0312C242.562 34.1562 242.115 34.3125 241.719 34.5C240.844 34.9583 240.406 35.7396 240.406 36.8438V70.25C240.406 71.5417 240.854 72.4375 241.75 72.9375C242.146 73.1667 242.604 73.3646 243.125 73.5312C243.646 73.6979 244.198 73.9062 244.781 74.1562V76H228.438V74.1562C228.938 73.9062 229.427 73.6979 229.906 73.5312C230.406 73.3646 230.854 73.1667 231.25 72.9375C232.146 72.4167 232.594 71.5208 232.594 70.25V36.0625H232.469L223.781 65.4688L222.125 60ZM204.438 39.0938V69.3438C204.438 70.9688 204.917 72.1146 205.875 72.7812C206.312 73.0729 206.802 73.3125 207.344 73.5C207.906 73.6667 208.469 73.8854 209.031 74.1562V76H196.5V74.1562C197 73.9062 197.51 73.7083 198.031 73.5625C198.552 73.3958 199.021 73.1667 199.438 72.875C200.396 72.2292 200.875 71.0729 200.875 69.4062V37.75L204.438 39.0938ZM204.562 36.7188C200.167 35.0312 197.479 33.9375 196.5 33.4375V31.5938H210.594L222.562 69.5625L220.656 76H216.969L204.562 36.7188ZM267.125 34.1562C266.125 34.1562 265.375 34.2292 264.875 34.375V31.5938H268.125C273.604 31.5938 277.729 32.625 280.5 34.6875C283.042 36.5625 284.312 39.1771 284.312 42.5312C284.312 45.1979 283.333 47.4271 281.375 49.2188C279.438 50.9896 276.812 52.0625 273.5 52.4375V52.5625C279.688 53.3958 283.708 55.625 285.562 59.25C286.25 60.5417 286.594 62.0625 286.594 63.8125C286.594 65.5417 286.292 67.1458 285.688 68.625C285.083 70.1042 284.146 71.3958 282.875 72.5C280.146 74.8333 276.177 76 270.969 76H264.875V73.25C265.333 73.375 266.271 73.4375 267.688 73.4375C271.292 73.4375 273.938 72.7083 275.625 71.25C277.312 69.7917 278.156 67.4479 278.156 64.2188C278.156 60.9896 277.24 58.5104 275.406 56.7812C273.594 55.0521 270.833 54.1875 267.125 54.1875H264.875V51.4375H266.062C272.583 51.4375 275.844 48.4896 275.844 42.5938C275.844 36.9688 272.938 34.1562 267.125 34.1562ZM262.281 76H250.125V74.1562C250.688 73.9062 251.229 73.7083 251.75 73.5625C252.292 73.4167 252.771 73.2292 253.188 73C254.062 72.5 254.5 71.5833 254.5 70.25V37.3438C254.5 36.0104 254.062 35.0938 253.188 34.5938C252.771 34.3646 252.292 34.1771 251.75 34.0312C251.229 33.8854 250.688 33.6875 250.125 33.4375V31.5938H262.281V76ZM308.188 31.5938C320.417 31.5938 326.531 35.2812 326.531 42.6562C326.531 45.6562 325.427 48.1562 323.219 50.1562C320.906 52.2396 317.76 53.3646 313.781 53.5312V53.6562C315.948 54.1771 317.625 55.2708 318.812 56.9375C319.438 57.8125 320.125 59.2083 320.875 61.125C321.625 63.0208 322.219 64.5312 322.656 65.6562C323.094 66.7604 323.531 67.7604 323.969 68.6562C324.948 70.6771 325.812 71.6875 326.562 71.6875C326.875 71.6875 327.146 71.5521 327.375 71.2812C327.604 70.9896 327.833 70.6667 328.062 70.3125C328.708 69.4167 329.292 68.9688 329.812 68.9688C329.875 68.9688 330.021 69.0312 330.25 69.1562C330.479 69.2604 330.594 69.4792 330.594 69.8125C330.594 70.1458 330.521 70.5 330.375 70.875C329.188 72.7708 328.292 74.0104 327.688 74.5938C326.396 75.8646 324.958 76.5 323.375 76.5C321.812 76.5 320.562 76.25 319.625 75.75C318.708 75.25 317.938 74.5833 317.312 73.75C316.688 72.8958 316.177 71.9167 315.781 70.8125C315.406 69.7083 315.062 68.5521 314.75 67.3438C314.458 66.1354 314.167 64.9167 313.875 63.6875C313.583 62.4583 313.219 61.2917 312.781 60.1875C311.781 57.7083 310.396 56.0312 308.625 55.1562C308.188 54.9271 307.656 54.6875 307.031 54.4375V51.875C312.927 51.875 316.5 50.2188 317.75 46.9062C318.167 45.7604 318.375 44.4062 318.375 42.8438C318.375 40.0312 317.552 37.8438 315.906 36.2812C314.26 34.7188 311.74 33.9375 308.344 33.9375C307.74 33.9375 307.302 33.9688 307.031 34.0312V31.5938H308.188ZM304.438 68.5625C304.438 69.9375 304.479 70.9062 304.562 71.4688C304.646 72.0312 304.833 72.4375 305.125 72.6875C305.438 72.9375 305.802 73.1354 306.219 73.2812C306.635 73.4062 307.073 73.5208 307.531 73.625C307.99 73.7292 308.417 73.9062 308.812 74.1562V76H292.25V74.1562C292.562 73.9062 292.938 73.7292 293.375 73.625C293.812 73.5208 294.25 73.3958 294.688 73.25C295.729 72.9375 296.312 72.3542 296.438 71.5C296.562 70.625 296.625 69.625 296.625 68.5V39.0625C296.625 36.75 296.354 35.375 295.812 34.9375C295.375 34.5833 294.76 34.3125 293.969 34.125C293.198 33.9167 292.625 33.6875 292.25 33.4375V31.5938H304.438V68.5625ZM353.594 61.9062H344.094L344.875 59.0312H352.656L353.594 61.9062ZM347.406 44.6562L340.062 66.5938C339.417 68.4479 339.104 69.8438 339.125 70.7812C339.146 71.6979 339.292 72.3021 339.562 72.5938C339.833 72.8854 340.188 73.0938 340.625 73.2188C341.062 73.3438 341.562 73.4479 342.125 73.5312C342.688 73.6146 343.26 73.8021 343.844 74.0938V76H330.25V74.0938C330.688 73.8438 331.146 73.6458 331.625 73.5C332.104 73.3542 332.562 73.1875 333 73C334.021 72.5417 334.677 71.8542 334.969 70.9375L345.531 39.5938L347.406 44.6562ZM346.625 36.4062C345.5 36.0104 344.74 35.6146 344.344 35.2188C344.385 34.7812 344.438 34.375 344.5 34C344.583 33.6042 344.656 33.2188 344.719 32.8438C344.802 32.4479 344.885 32.125 344.969 31.875C348.927 31.0417 351.219 30.625 351.844 30.625C352.281 30.9792 352.688 31.6354 353.062 32.5938L366.781 70.4375C367.24 71.6875 367.927 72.5417 368.844 73C369.26 73.2083 369.698 73.3854 370.156 73.5312C370.635 73.6562 371.135 73.8438 371.656 74.0938V76H354.75V74.0938C355.229 73.8646 355.729 73.7083 356.25 73.625C356.771 73.5208 357.25 73.4167 357.688 73.3125C358.646 73.0833 359.125 72.6146 359.125 71.9062C359.125 71.2812 358.625 69.5938 357.625 66.8438C356.625 64.0938 355.74 61.6458 354.969 59.5C352.823 53.4792 350.719 47.4583 348.656 41.4375L346.625 36.4062ZM387.938 50.75L397.719 39C397.99 38.6875 398.271 38.375 398.562 38.0625C398.854 37.75 399.125 37.4479 399.375 37.1562C399.958 36.4688 400.25 35.9479 400.25 35.5938C400.25 35.2188 400.115 34.9479 399.844 34.7812C399.573 34.5938 399.219 34.4479 398.781 34.3438C398.365 34.2188 397.896 34.1146 397.375 34.0312C396.875 33.9271 396.396 33.75 395.938 33.5V31.5938H411.281V33.5C410.969 33.75 410.573 33.9479 410.094 34.0938C409.635 34.2188 409.104 34.375 408.5 34.5625C406.958 35.0625 405.615 35.8646 404.469 36.9688L394.312 49L408.188 70.625C408.854 71.7917 409.74 72.6042 410.844 73.0625C411.302 73.25 411.75 73.4062 412.188 73.5312C412.646 73.6562 413.094 73.8438 413.531 74.0938V76H396V74.0938C396.354 73.8438 396.76 73.6667 397.219 73.5625C397.677 73.4375 398.115 73.3125 398.531 73.1875C399.531 72.8958 400.031 72.4479 400.031 71.8438C400.031 71.4271 399.896 70.9896 399.625 70.5312C399.354 70.0521 398.99 69.4167 398.531 68.625L387.938 52.3438V50.75ZM385.344 69.0312C385.344 70.6979 385.583 71.8021 386.062 72.3438C386.833 73.2604 388.042 73.8646 389.688 74.1562V76H373.188V74.1562C373.75 73.9062 374.292 73.7083 374.812 73.5625C375.354 73.4167 375.833 73.2292 376.25 73C377.125 72.5 377.562 71.5833 377.562 70.25V38.6875C377.562 37.0417 377.406 35.9896 377.094 35.5312C376.802 35.0729 376.521 34.7812 376.25 34.6562C375.979 34.5312 375.688 34.4167 375.375 34.3125C374.312 34.0208 373.583 33.7292 373.188 33.4375V31.5938H389.688V33.4375C387.979 33.7708 386.896 34.2188 386.438 34.7812C385.708 35.6771 385.344 36.9583 385.344 38.625V69.0312ZM432.188 31.5938V33.4375C431.583 33.6875 431.01 33.8854 430.469 34.0312C429.927 34.1771 429.458 34.3646 429.062 34.5938C428.167 35.0938 427.719 36.0104 427.719 37.3438V70.25C427.719 71.5833 428.167 72.5 429.062 73C429.479 73.2292 429.958 73.4167 430.5 73.5625C431.042 73.7083 431.625 73.9062 432.25 74.1562V76H415.406V74.1562C416.01 73.9062 416.583 73.7083 417.125 73.5625C417.667 73.4167 418.146 73.2292 418.562 73C419.479 72.5 419.938 71.5833 419.938 70.25V37.3438C419.938 36.0104 419.479 35.0938 418.562 34.5938C418.146 34.3646 417.667 34.1771 417.125 34.0312C416.583 33.8854 416.01 33.6875 415.406 33.4375V31.5938H432.188Z" fill="black"/>
</svg>
