<svg width="360" height="640" viewBox="0 0 360 640" fill="none" xmlns="http://www.w3.org/2000/svg">
<g clip-path="url(#clip0)">
<rect width="360" height="640" fill="#F9F9F9"/>
<rect x="-16.6353" y="71.2241" width="62.6667" height="56.6667" rx="2" transform="rotate(-90.8318 -16.6353 71.2241)" fill="#BC4242"/>
<rect x="-2.69757" y="55.3533" width="62.6667" height="56.6667" rx="2" transform="rotate(-90.8318 -2.69757 55.3533)" fill="#AE2121"/>
<rect x="11.2402" y="39.4828" width="62.6667" height="56.6667" rx="2" transform="rotate(-90.8318 11.2402 39.4828)" fill="#862929"/>
<rect x="-43" y="581" width="67.3333" height="60.6667" rx="2" fill="#BC4242"/>
<rect x="-26.1667" y="596.167" width="67.3333" height="60.6667" rx="2" fill="#AE2121"/>
<rect x="-9.33331" y="611.333" width="67.3333" height="60.6667" rx="2" fill="#862929"/>
<rect x="296" y="-5" width="64.6667" height="58" rx="2" fill="#BC4242"/>
<rect x="312.167" y="9.5" width="64.6667" height="58" rx="2" fill="#AE2121"/>
<rect x="328.333" y="24" width="64.6667" height="58" rx="2" fill="#862929"/>
<rect x="328" y="611" width="64.6667" height="58" rx="2" fill="#BC4242"/>
<rect x="344.167" y="625.5" width="64.6667" height="58" rx="2" fill="#AE2121"/>
<path d="M131.055 284V283.309C131.195 283.215 131.348 283.148 131.512 283.109C131.684 283.07 131.844 283.023 131.992 282.969C132.359 282.852 132.566 282.637 132.613 282.324C132.668 282.012 132.695 281.609 132.695 281.117V270.219C132.695 269.305 132.594 268.766 132.391 268.602C132.227 268.469 131.996 268.367 131.699 268.297C131.41 268.219 131.195 268.133 131.055 268.039V267.348H137.348V268.039C137.176 268.133 137 268.203 136.82 268.25C136.641 268.289 136.473 268.336 136.316 268.391C135.949 268.523 135.746 268.734 135.707 269.023C135.652 269.336 135.625 269.727 135.625 270.195V284H131.055ZM136.598 283.027C136.715 283.035 136.836 283.039 136.961 283.039H137.348C138.816 283.039 139.875 282.578 140.523 281.656C140.812 281.234 141.039 280.754 141.203 280.215C141.367 279.668 141.484 279.297 141.555 279.102C141.703 278.68 141.887 278.328 142.105 278.047H142.844V284H136.598V283.027ZM151.82 277.016C151.82 274.766 151.258 273.5 150.133 273.219V272.211C151.594 272.344 152.719 272.957 153.508 274.051C154.25 275.074 154.621 276.406 154.621 278.047H147.988V277.016H151.82ZM150.18 283.285C151.539 283.223 152.504 282.582 153.074 281.363C153.238 281.012 153.379 280.652 153.496 280.285L154.504 280.66C154.066 282.293 153.172 283.391 151.82 283.953C151.344 284.148 150.797 284.266 150.18 284.305V283.285ZM147.004 277.52C147.004 280.879 147.738 282.77 149.207 283.191V284.27C147.676 284.098 146.461 283.461 145.562 282.359C144.664 281.273 144.215 279.91 144.215 278.27C144.215 276.543 144.664 275.125 145.562 274.016C146.469 272.898 147.668 272.293 149.16 272.199V273.172C147.723 273.344 147.004 274.793 147.004 277.52ZM161.312 272.879C161.984 272.418 162.754 272.188 163.621 272.188C165.012 272.188 166.023 272.664 166.656 273.617C166.844 273.898 166.98 274.199 167.066 274.52V282.148C167.066 282.531 167.219 282.805 167.523 282.969C167.664 283.047 167.816 283.113 167.98 283.168C168.145 283.215 168.305 283.285 168.461 283.379V284H163.973V283.203C163.973 283.055 164.039 282.918 164.172 282.793C164.305 282.668 164.402 282.562 164.465 282.477C164.527 282.383 164.559 282.25 164.559 282.078V275.316C164.559 274.066 164.012 273.441 162.918 273.441C162.277 273.441 161.742 273.648 161.312 274.062V272.879ZM169.633 273.441C169.039 273.441 168.508 273.633 168.039 274.016V272.867C168.742 272.43 169.434 272.211 170.113 272.211C170.801 272.211 171.352 272.277 171.766 272.41C172.188 272.543 172.547 272.746 172.844 273.02C173.477 273.59 173.793 274.434 173.793 275.551V282.148C173.793 282.531 173.953 282.805 174.273 282.969C174.406 283.047 174.555 283.113 174.719 283.168C174.891 283.215 175.059 283.285 175.223 283.379V284H170.711V283.203C170.711 283.055 170.777 282.914 170.91 282.781C171.168 282.523 171.297 282.281 171.297 282.055V275.211C171.297 274.031 170.742 273.441 169.633 273.441ZM160.34 282.148C160.34 282.516 160.5 282.781 160.82 282.945C160.961 283.023 161.117 283.094 161.289 283.156C161.469 283.211 161.645 283.285 161.816 283.379V284H156.355V283.379C156.52 283.285 156.688 283.211 156.859 283.156C157.039 283.094 157.199 283.023 157.34 282.945C157.668 282.773 157.832 282.508 157.832 282.148V274.883C157.832 274.109 157.68 273.66 157.375 273.535C157.281 273.496 157.18 273.461 157.07 273.43C156.727 273.352 156.477 273.258 156.32 273.148V272.434H160.34V282.148ZM186.121 282.746C185.637 283.262 185.078 283.652 184.445 283.918C183.82 284.184 183.211 284.316 182.617 284.316C182.031 284.316 181.52 284.258 181.082 284.141V282.98C181.402 283.199 181.766 283.309 182.172 283.309C183.992 283.309 184.902 281.652 184.902 278.34C184.902 275.699 184.414 274.117 183.438 273.594C183.125 273.43 182.805 273.348 182.477 273.348C182.148 273.348 181.883 273.422 181.68 273.57C181.477 273.711 181.277 273.871 181.082 274.051V272.68C181.637 272.352 182.211 272.188 182.805 272.188C183.406 272.188 183.996 272.309 184.574 272.551C185.152 272.793 185.672 273.164 186.133 273.664C187.188 274.781 187.715 276.316 187.715 278.27C187.715 280.121 187.184 281.613 186.121 282.746ZM177.449 284.094C177.559 283.328 177.613 282.441 177.613 281.434V269.387C177.613 268.918 177.461 268.594 177.156 268.414C177.016 268.328 176.863 268.262 176.699 268.215C176.535 268.16 176.375 268.086 176.219 267.992V267.277H180.109V283.848C179.711 283.684 179.422 283.5 179.242 283.297C179.023 283.398 178.84 283.543 178.691 283.73C178.543 283.918 178.445 284.039 178.398 284.094H177.449ZM193.398 275.211V281.691C193.398 282.395 193.57 282.812 193.914 282.945C194.023 282.992 194.141 283.031 194.266 283.062C194.68 283.18 194.973 283.285 195.145 283.379V284H189.496V283.379C189.645 283.285 189.801 283.211 189.965 283.156C190.129 283.094 190.281 283.023 190.422 282.945C190.742 282.781 190.902 282.516 190.902 282.148V275.363C190.902 274.465 190.828 273.945 190.68 273.805C190.539 273.664 190.398 273.562 190.258 273.5C190.125 273.438 189.984 273.387 189.836 273.348C189.688 273.301 189.559 273.234 189.449 273.148V272.434H193.258L193.398 275.211ZM196.984 275.586C196.641 275.586 196.371 275.504 196.176 275.34C195.98 275.176 195.883 274.973 195.883 274.73C195.883 274.488 195.984 274.25 196.188 274.016C196.117 273.969 196.027 273.945 195.918 273.945C195.387 273.953 194.871 274.328 194.371 275.07V273.266C194.949 272.547 195.605 272.188 196.34 272.188C197.184 272.188 197.75 272.555 198.039 273.289C198.133 273.516 198.18 273.82 198.18 274.203C198.18 274.586 198.066 274.914 197.84 275.188C197.613 275.453 197.328 275.586 196.984 275.586ZM204.859 278.023C202.766 278.781 201.719 279.887 201.719 281.34C201.719 281.926 201.859 282.398 202.141 282.758C202.422 283.109 202.84 283.285 203.395 283.285C203.957 283.285 204.445 283.078 204.859 282.664V283.777C204.258 284.137 203.578 284.316 202.82 284.316C202.062 284.316 201.453 284.242 200.992 284.094C200.539 283.945 200.156 283.742 199.844 283.484C199.195 282.961 198.871 282.27 198.871 281.41C198.871 279.637 200.445 278.297 203.594 277.391C204.039 277.258 204.461 277.141 204.859 277.039V278.023ZM202.082 273.828C202.512 273.992 202.727 274.367 202.727 274.953C202.727 275.328 202.594 275.629 202.328 275.855C202.062 276.082 201.703 276.195 201.25 276.195C200.805 276.195 200.449 276.074 200.184 275.832C199.926 275.59 199.797 275.277 199.797 274.895C199.797 274.512 199.887 274.168 200.066 273.863C200.246 273.559 200.5 273.289 200.828 273.055C201.508 272.562 202.363 272.277 203.395 272.199V273.09C202.762 273.152 202.324 273.398 202.082 273.828ZM209.055 282.84C209.484 282.84 209.758 282.449 209.875 281.668L210.473 281.984C210.395 282.742 210.184 283.32 209.84 283.719C209.504 284.117 208.965 284.316 208.223 284.316C207.645 284.316 207.215 284.211 206.934 284C206.48 283.656 206.113 283.137 205.832 282.441V275.141C205.832 274.656 205.703 274.238 205.445 273.887C205.195 273.527 204.836 273.285 204.367 273.16V272.199C207.016 272.34 208.34 273.738 208.34 276.395V281.938C208.34 282.539 208.578 282.84 209.055 282.84ZM215.102 281.645C215.102 282.363 215.258 282.797 215.57 282.945C215.664 282.984 215.766 283.023 215.875 283.062C216.195 283.164 216.426 283.27 216.566 283.379V284H211.117V283.379C211.289 283.238 211.465 283.148 211.645 283.109C211.824 283.07 211.984 283.016 212.125 282.945C212.445 282.773 212.605 282.34 212.605 281.645V269.738C212.605 268.957 212.453 268.504 212.148 268.379C212.055 268.34 211.953 268.305 211.844 268.273C211.5 268.195 211.258 268.102 211.117 267.992V267.277H215.102V281.645ZM216.074 276.992L218.16 275.047C218.699 274.547 218.969 274.18 218.969 273.945C218.969 273.711 218.656 273.531 218.031 273.406C217.859 273.367 217.699 273.312 217.551 273.242V272.504H222.754V273.195C222.574 273.281 222.379 273.371 222.168 273.465C221.957 273.551 221.719 273.672 221.453 273.828C220.828 274.188 220.164 274.707 219.461 275.387L218.125 276.676L221.641 282.371C221.844 282.715 222.062 282.926 222.297 283.004C222.539 283.082 222.73 283.141 222.871 283.18C223.012 283.211 223.156 283.27 223.305 283.355V284H218.16V283.379C218.543 283.199 218.742 282.926 218.758 282.559C218.758 282.457 218.734 282.363 218.688 282.277L216.074 277.695V276.992ZM228.238 272.363V282.148C228.238 282.516 228.398 282.781 228.719 282.945C228.867 283.023 229.027 283.094 229.199 283.156C229.371 283.211 229.539 283.285 229.703 283.379V284H224.254V283.379C224.418 283.285 224.586 283.211 224.758 283.156C224.938 283.094 225.102 283.023 225.25 282.945C225.578 282.781 225.742 282.516 225.742 282.148V274.309C225.742 273.895 225.586 273.609 225.273 273.453C225.133 273.383 224.973 273.328 224.793 273.289C224.613 273.242 224.434 273.172 224.254 273.078V272.434L228.238 272.363ZM225.309 268.73C225.309 268.277 225.453 267.914 225.742 267.641C226.031 267.359 226.344 267.219 226.68 267.219C227.023 267.219 227.289 267.258 227.477 267.336C227.672 267.406 227.84 267.508 227.98 267.641C228.277 267.922 228.426 268.285 228.426 268.73C228.426 269.168 228.277 269.527 227.98 269.809C227.691 270.082 227.316 270.219 226.855 270.219C226.402 270.219 226.031 270.082 225.742 269.809C225.453 269.535 225.309 269.176 225.309 268.73Z" fill="black"/>
<rect x="75" y="443" width="210" height="50" rx="5" fill="#862929"/>
<path d="M147.436 475.18C146.092 475.18 145.024 474.85 144.232 474.19C143.44 473.518 143.038 472.612 143.026 471.472H145.276C145.276 472.012 145.468 472.438 145.852 472.75C146.248 473.05 146.782 473.2 147.454 473.2C148.102 473.2 148.606 473.05 148.966 472.75C149.338 472.45 149.524 472.036 149.524 471.508C149.524 471.064 149.392 470.68 149.128 470.356C148.864 470.032 148.498 469.804 148.03 469.672L146.518 469.258C145.486 468.994 144.688 468.52 144.124 467.836C143.572 467.152 143.296 466.324 143.296 465.352C143.296 464.608 143.464 463.96 143.8 463.408C144.136 462.856 144.61 462.43 145.222 462.13C145.846 461.83 146.578 461.68 147.418 461.68C148.69 461.68 149.698 462.01 150.442 462.67C151.186 463.318 151.564 464.194 151.576 465.298H149.326C149.326 464.782 149.158 464.38 148.822 464.092C148.486 463.792 148.012 463.642 147.4 463.642C146.8 463.642 146.338 463.786 146.014 464.074C145.702 464.35 145.546 464.734 145.546 465.226C145.546 465.682 145.666 466.072 145.906 466.396C146.158 466.708 146.518 466.93 146.986 467.062L148.552 467.494C149.596 467.758 150.394 468.232 150.946 468.916C151.498 469.588 151.774 470.422 151.774 471.418C151.774 472.162 151.594 472.822 151.234 473.398C150.874 473.962 150.364 474.4 149.704 474.712C149.056 475.024 148.3 475.18 147.436 475.18ZM154.161 475V472.948H157.617V467.134H154.611V465.1H159.777V472.948H162.837V475H154.161ZM158.517 463.444C158.061 463.444 157.701 463.33 157.437 463.102C157.173 462.862 157.041 462.544 157.041 462.148C157.041 461.752 157.173 461.44 157.437 461.212C157.701 460.972 158.061 460.852 158.517 460.852C158.973 460.852 159.333 460.972 159.597 461.212C159.861 461.44 159.993 461.752 159.993 462.148C159.993 462.544 159.861 462.862 159.597 463.102C159.333 463.33 158.973 463.444 158.517 463.444ZM166.322 478.24V476.368H169.256C170.264 476.368 170.768 475.894 170.768 474.946V474.208L170.804 472.354H170.768C170.672 473.002 170.396 473.512 169.94 473.884C169.484 474.244 168.896 474.424 168.176 474.424C167.168 474.424 166.364 474.082 165.764 473.398C165.176 472.714 164.882 471.79 164.882 470.626V468.7C164.882 467.548 165.176 466.63 165.764 465.946C166.364 465.262 167.168 464.92 168.176 464.92C168.896 464.92 169.484 465.106 169.94 465.478C170.396 465.838 170.672 466.342 170.768 466.99H170.804L170.75 465.1H173V475C173 476.008 172.67 476.8 172.01 477.376C171.35 477.952 170.444 478.24 169.292 478.24H166.322ZM168.932 472.48C169.508 472.48 169.952 472.312 170.264 471.976C170.588 471.628 170.75 471.148 170.75 470.536V468.808C170.75 468.196 170.588 467.722 170.264 467.386C169.952 467.038 169.508 466.864 168.932 466.864C168.356 466.864 167.912 467.032 167.6 467.368C167.288 467.704 167.132 468.184 167.132 468.808V470.536C167.132 471.16 167.288 471.64 167.6 471.976C167.912 472.312 168.356 472.48 168.932 472.48ZM175.765 475V465.1H177.961V466.99H177.997C178.105 466.342 178.387 465.838 178.843 465.478C179.299 465.106 179.893 464.92 180.625 464.92C181.597 464.92 182.371 465.244 182.947 465.892C183.535 466.54 183.829 467.41 183.829 468.502V475H181.579V468.736C181.579 468.136 181.417 467.674 181.093 467.35C180.781 467.026 180.355 466.864 179.815 466.864C179.251 466.864 178.807 467.032 178.483 467.368C178.171 467.704 178.015 468.184 178.015 468.808V475H175.765ZM201.365 475.18C200.081 475.18 199.073 474.832 198.341 474.136C197.621 473.428 197.261 472.468 197.261 471.256V461.86H199.529V471.238C199.529 471.862 199.685 472.348 199.997 472.696C200.309 473.044 200.765 473.218 201.365 473.218C201.953 473.218 202.403 473.044 202.715 472.696C203.039 472.348 203.201 471.862 203.201 471.238V461.86H205.469V471.256C205.469 472.468 205.109 473.428 204.389 474.136C203.669 474.832 202.661 475.18 201.365 475.18ZM208.144 478.24V465.1H210.34V466.99H210.376C210.484 466.33 210.766 465.82 211.222 465.46C211.69 465.1 212.284 464.92 213.004 464.92C214 464.92 214.798 465.262 215.398 465.946C215.998 466.63 216.298 467.548 216.298 468.7V471.382C216.298 472.546 215.998 473.47 215.398 474.154C214.798 474.838 214 475.18 213.004 475.18C212.284 475.18 211.69 475 211.222 474.64C210.766 474.268 210.484 473.758 210.376 473.11H210.322L210.394 475.468V478.24H208.144ZM212.212 473.236C212.788 473.236 213.238 473.068 213.562 472.732C213.886 472.396 214.048 471.916 214.048 471.292V468.808C214.048 468.184 213.886 467.704 213.562 467.368C213.238 467.032 212.788 466.864 212.212 466.864C211.648 466.864 211.204 467.038 210.88 467.386C210.556 467.722 210.394 468.196 210.394 468.808V471.292C210.394 471.904 210.556 472.384 210.88 472.732C211.204 473.068 211.648 473.236 212.212 473.236Z" fill="white"/>
<rect x="75.5" y="513.5" width="209" height="49" rx="4.5" stroke="#862929"/>
<path d="M148.854 545V531.86H151.104V542.912H156.684V545H148.854ZM163.193 545.162C161.921 545.162 160.913 544.814 160.169 544.118C159.425 543.41 159.053 542.462 159.053 541.274V538.826C159.053 537.638 159.425 536.696 160.169 536C160.913 535.292 161.921 534.938 163.193 534.938C164.465 534.938 165.473 535.292 166.217 536C166.961 536.696 167.333 537.632 167.333 538.808V541.274C167.333 542.462 166.961 543.41 166.217 544.118C165.473 544.814 164.465 545.162 163.193 545.162ZM163.193 543.2C163.793 543.2 164.255 543.038 164.579 542.714C164.915 542.378 165.083 541.898 165.083 541.274V538.826C165.083 538.202 164.915 537.728 164.579 537.404C164.255 537.068 163.793 536.9 163.193 536.9C162.593 536.9 162.125 537.068 161.789 537.404C161.465 537.728 161.303 538.202 161.303 538.826V541.274C161.303 541.898 161.465 542.378 161.789 542.714C162.125 543.038 162.593 543.2 163.193 543.2ZM171.322 548.24V546.368H174.256C175.264 546.368 175.768 545.894 175.768 544.946V544.208L175.804 542.354H175.768C175.672 543.002 175.396 543.512 174.94 543.884C174.484 544.244 173.896 544.424 173.176 544.424C172.168 544.424 171.364 544.082 170.764 543.398C170.176 542.714 169.882 541.79 169.882 540.626V538.7C169.882 537.548 170.176 536.63 170.764 535.946C171.364 535.262 172.168 534.92 173.176 534.92C173.896 534.92 174.484 535.106 174.94 535.478C175.396 535.838 175.672 536.342 175.768 536.99H175.804L175.75 535.1H178V545C178 546.008 177.67 546.8 177.01 547.376C176.35 547.952 175.444 548.24 174.292 548.24H171.322ZM173.932 542.48C174.508 542.48 174.952 542.312 175.264 541.976C175.588 541.628 175.75 541.148 175.75 540.536V538.808C175.75 538.196 175.588 537.722 175.264 537.386C174.952 537.038 174.508 536.864 173.932 536.864C173.356 536.864 172.912 537.032 172.6 537.368C172.288 537.704 172.132 538.184 172.132 538.808V540.536C172.132 541.16 172.288 541.64 172.6 541.976C172.912 542.312 173.356 542.48 173.932 542.48ZM191.54 545V542.948H194.996V537.134H191.99V535.1H197.156V542.948H200.216V545H191.54ZM195.896 533.444C195.44 533.444 195.08 533.33 194.816 533.102C194.552 532.862 194.42 532.544 194.42 532.148C194.42 531.752 194.552 531.44 194.816 531.212C195.08 530.972 195.44 530.852 195.896 530.852C196.352 530.852 196.712 530.972 196.976 531.212C197.24 531.44 197.372 531.752 197.372 532.148C197.372 532.544 197.24 532.862 196.976 533.102C196.712 533.33 196.352 533.444 195.896 533.444ZM202.351 545V535.1H204.547V536.99H204.583C204.691 536.342 204.973 535.838 205.429 535.478C205.885 535.106 206.479 534.92 207.211 534.92C208.183 534.92 208.957 535.244 209.533 535.892C210.121 536.54 210.415 537.41 210.415 538.502V545H208.165V538.736C208.165 538.136 208.003 537.674 207.679 537.35C207.367 537.026 206.941 536.864 206.401 536.864C205.837 536.864 205.393 537.032 205.069 537.368C204.757 537.704 204.601 538.184 204.601 538.808V545H202.351Z" fill="#862929"/>
<rect x="144.42" y="113" width="86.5801" height="85.8369" rx="5" fill="#BC4242"/>
<rect x="138.359" y="120.296" width="86.5801" height="85.8369" rx="5" fill="#AE2121"/>
<rect x="131" y="127.163" width="86.5801" height="85.8369" rx="5" fill="#862929"/>
<path d="M154.582 184V182.963C154.793 182.822 155.021 182.723 155.268 182.664C155.525 182.605 155.766 182.535 155.988 182.453C156.539 182.277 156.85 181.955 156.92 181.486C157.002 181.018 157.043 180.414 157.043 179.676V163.328C157.043 161.957 156.891 161.148 156.586 160.902C156.34 160.703 155.994 160.551 155.549 160.445C155.115 160.328 154.793 160.199 154.582 160.059V159.021H164.021V160.059C163.764 160.199 163.5 160.305 163.23 160.375C162.961 160.434 162.709 160.504 162.475 160.586C161.924 160.785 161.619 161.102 161.561 161.535C161.479 162.004 161.438 162.59 161.438 163.293V184H154.582ZM162.896 182.541C163.072 182.553 163.254 182.559 163.441 182.559H164.021C166.225 182.559 167.812 181.867 168.785 180.484C169.219 179.852 169.559 179.131 169.805 178.322C170.051 177.502 170.227 176.945 170.332 176.652C170.555 176.02 170.83 175.492 171.158 175.07H172.266V184H162.896V182.541ZM185.572 176.072H180.229L180.668 174.455H185.045L185.572 176.072ZM182.092 166.369L177.961 178.709C177.598 179.752 177.422 180.537 177.434 181.064C177.445 181.58 177.527 181.92 177.68 182.084C177.832 182.248 178.031 182.365 178.277 182.436C178.523 182.506 178.805 182.564 179.121 182.611C179.438 182.658 179.76 182.764 180.088 182.928V184H172.441V182.928C172.688 182.787 172.945 182.676 173.215 182.594C173.484 182.512 173.742 182.418 173.988 182.312C174.562 182.055 174.932 181.668 175.096 181.152L181.037 163.521L182.092 166.369ZM181.652 161.729C181.02 161.506 180.592 161.283 180.369 161.061C180.393 160.814 180.422 160.586 180.457 160.375C180.504 160.152 180.545 159.936 180.58 159.725C180.627 159.502 180.674 159.32 180.721 159.18C182.947 158.711 184.236 158.477 184.588 158.477C184.834 158.676 185.062 159.045 185.273 159.584L192.99 180.871C193.248 181.574 193.635 182.055 194.15 182.312C194.385 182.43 194.631 182.529 194.889 182.611C195.158 182.682 195.439 182.787 195.732 182.928V184H186.223V182.928C186.492 182.799 186.773 182.711 187.066 182.664C187.359 182.605 187.629 182.547 187.875 182.488C188.414 182.359 188.684 182.096 188.684 181.697C188.684 181.346 188.402 180.396 187.84 178.85C187.277 177.303 186.779 175.926 186.346 174.719C185.139 171.332 183.955 167.945 182.795 164.559L181.652 161.729Z" fill="white"/>
</g>
<defs>
<clipPath id="clip0">
<rect width="360" height="640" fill="white"/>
</clipPath>
</defs>
</svg>
