<svg width="360" height="640" viewBox="0 0 360 640" fill="none" xmlns="http://www.w3.org/2000/svg">
<g clip-path="url(#clip0)">
<rect width="360" height="640" fill="#F9F9F9"/>
<rect x="-43" y="581" width="67.3333" height="60.6667" rx="2" fill="#BC4242"/>
<rect x="-26.1666" y="596.167" width="67.3333" height="60.6667" rx="2" fill="#AE2121"/>
<rect x="-9.33337" y="611.333" width="67.3333" height="60.6667" rx="2" fill="#862929"/>
<rect x="328" y="611" width="64.6667" height="58" rx="2" fill="#BC4242"/>
<rect x="344.167" y="625.5" width="64.6667" height="58" rx="2" fill="#AE2121"/>
<rect width="360" height="10" fill="#862929"/>
<rect x="30" y="58" width="129" height="130" rx="5" fill="#862929"/>
<path d="M81.9453 127.5L84.3096 119.511H88.2559V120.029C88.1152 120.1 87.9746 120.155 87.834 120.196C87.6934 120.231 87.5674 120.275 87.4561 120.328C87.21 120.457 87.0869 120.677 87.0869 120.987V130.383C87.0869 130.746 87.2129 130.998 87.4648 131.139C87.5762 131.203 87.7051 131.259 87.8516 131.306C87.998 131.353 88.1533 131.411 88.3174 131.481V132H83.7207V131.481C83.8613 131.411 83.999 131.353 84.1338 131.306C84.2744 131.259 84.4004 131.203 84.5117 131.139C84.7637 130.992 84.8896 130.74 84.8896 130.383V120.768H84.8545L82.4111 129.038L81.9453 127.5ZM76.9707 121.62V130.128C76.9707 130.585 77.1055 130.907 77.375 131.095C77.498 131.177 77.6357 131.244 77.7881 131.297C77.9463 131.344 78.1045 131.405 78.2627 131.481V132H74.7383V131.481C74.8789 131.411 75.0225 131.355 75.1689 131.314C75.3154 131.268 75.4473 131.203 75.5645 131.121C75.834 130.939 75.9688 130.614 75.9688 130.146V121.242L76.9707 121.62ZM77.0059 120.952C75.7695 120.478 75.0137 120.17 74.7383 120.029V119.511H78.7021L82.0684 130.189L81.5322 132H80.4951L77.0059 120.952ZM94.1094 127.518C92.5391 128.086 91.7539 128.915 91.7539 130.005C91.7539 130.444 91.8594 130.799 92.0703 131.068C92.2812 131.332 92.5947 131.464 93.0107 131.464C93.4326 131.464 93.7988 131.309 94.1094 130.998V131.833C93.6582 132.103 93.1484 132.237 92.5801 132.237C92.0117 132.237 91.5547 132.182 91.209 132.07C90.8691 131.959 90.582 131.807 90.3477 131.613C89.8613 131.221 89.6182 130.702 89.6182 130.058C89.6182 128.728 90.7988 127.723 93.1602 127.043C93.4941 126.943 93.8105 126.855 94.1094 126.779V127.518ZM92.0264 124.371C92.3486 124.494 92.5098 124.775 92.5098 125.215C92.5098 125.496 92.4102 125.722 92.2109 125.892C92.0117 126.062 91.7422 126.146 91.4023 126.146C91.0684 126.146 90.8018 126.056 90.6025 125.874C90.4092 125.692 90.3125 125.458 90.3125 125.171C90.3125 124.884 90.3799 124.626 90.5146 124.397C90.6494 124.169 90.8398 123.967 91.0859 123.791C91.5957 123.422 92.2373 123.208 93.0107 123.149V123.817C92.5361 123.864 92.208 124.049 92.0264 124.371ZM97.2559 131.13C97.5781 131.13 97.7832 130.837 97.8711 130.251L98.3193 130.488C98.2607 131.057 98.1025 131.49 97.8447 131.789C97.5928 132.088 97.1885 132.237 96.6318 132.237C96.1982 132.237 95.876 132.158 95.665 132C95.3252 131.742 95.0498 131.353 94.8389 130.831V125.355C94.8389 124.992 94.7422 124.679 94.5488 124.415C94.3613 124.146 94.0918 123.964 93.7402 123.87V123.149C95.7266 123.255 96.7197 124.304 96.7197 126.296V130.453C96.7197 130.904 96.8984 131.13 97.2559 131.13ZM102.503 123.483H103.944V124.257H102.503V123.483ZM101.773 132.229C100.76 132.182 100.162 131.73 99.9805 130.875C99.9219 130.605 99.8926 130.304 99.8926 129.97V124.257H98.7061V123.721C98.7939 123.645 98.8877 123.583 98.9873 123.536C99.0928 123.483 99.1953 123.434 99.2949 123.387C99.5527 123.258 99.7402 123.103 99.8574 122.921C99.9746 122.733 100.071 122.534 100.147 122.323C100.229 122.106 100.297 121.893 100.35 121.682C100.408 121.465 100.461 121.254 100.508 121.049C100.561 120.844 100.625 120.642 100.701 120.442L101.773 120.39V132.229ZM102.503 131.429C102.942 131.429 103.285 131.115 103.531 130.488C103.607 130.295 103.681 130.084 103.751 129.855L104.313 129.987C104.155 131.036 103.795 131.707 103.232 132C103.027 132.105 102.784 132.176 102.503 132.211V131.429ZM108.146 130.611C108.146 130.887 108.266 131.086 108.506 131.209C108.617 131.268 108.737 131.32 108.866 131.367C109.001 131.408 109.13 131.464 109.253 131.534V132H105.157V131.534C105.286 131.464 105.415 131.408 105.544 131.367C105.679 131.32 105.799 131.268 105.904 131.209C106.145 131.086 106.265 130.887 106.265 130.611V120.908C106.265 120.592 106.147 120.381 105.913 120.275C105.808 120.223 105.688 120.182 105.553 120.152C105.418 120.117 105.28 120.064 105.14 119.994V119.458H108.146V130.611ZM110.193 124.081C109.713 124.081 109.273 124.263 108.875 124.626V123.668C109.391 123.316 109.988 123.141 110.668 123.141C111.453 123.141 112.098 123.352 112.602 123.773C113.146 124.23 113.419 124.849 113.419 125.628V130.611C113.419 130.881 113.542 131.08 113.788 131.209C113.894 131.268 114.011 131.32 114.14 131.367C114.269 131.408 114.392 131.464 114.509 131.534V132H111.107V131.367C111.107 131.262 111.131 131.183 111.178 131.13C111.225 131.071 111.274 131.016 111.327 130.963C111.474 130.805 111.547 130.635 111.547 130.453V125.593C111.547 124.585 111.096 124.081 110.193 124.081Z" fill="white"/>
<rect x="201" y="58" width="129" height="130" rx="5" fill="#862929"/>
<path d="M253.302 119.511V129.987C253.302 130.45 253.352 130.749 253.451 130.884C253.551 131.013 253.642 131.098 253.724 131.139C253.812 131.174 253.908 131.203 254.014 131.227C254.312 131.303 254.538 131.388 254.69 131.481V132H249.751V131.481C249.88 131.399 250.047 131.332 250.252 131.279C250.463 131.221 250.609 131.174 250.691 131.139C250.779 131.104 250.855 131.045 250.92 130.963C251.043 130.787 251.104 130.462 251.104 129.987V119.511H253.302ZM255.912 119.511C256.152 119.511 256.554 119.467 257.116 119.379V123.536H256.519C256.437 123.313 256.363 123.079 256.299 122.833C256.24 122.581 256.173 122.335 256.097 122.095C256.021 121.849 255.933 121.614 255.833 121.392C255.733 121.163 255.604 120.964 255.446 120.794C255.095 120.419 254.623 120.231 254.031 120.231V119.511H255.912ZM247.316 119.379C247.598 119.467 247.812 119.511 247.958 119.511H250.375V120.231C249.531 120.231 248.934 120.621 248.582 121.4C248.412 121.77 248.277 122.165 248.178 122.587C248.078 123.003 247.99 123.319 247.914 123.536H247.299V119.396L247.316 119.379ZM262.609 126.762C262.609 125.074 262.188 124.125 261.344 123.914V123.158C262.439 123.258 263.283 123.718 263.875 124.538C264.432 125.306 264.71 126.305 264.71 127.535H259.735V126.762H262.609ZM261.379 131.464C262.398 131.417 263.122 130.937 263.55 130.022C263.673 129.759 263.778 129.489 263.866 129.214L264.622 129.495C264.294 130.72 263.623 131.543 262.609 131.965C262.252 132.111 261.842 132.199 261.379 132.229V131.464ZM258.997 127.14C258.997 129.659 259.548 131.077 260.649 131.394V132.202C259.501 132.073 258.59 131.596 257.916 130.77C257.242 129.955 256.905 128.933 256.905 127.702C256.905 126.407 257.242 125.344 257.916 124.512C258.596 123.674 259.495 123.22 260.614 123.149V123.879C259.536 124.008 258.997 125.095 258.997 127.14ZM271.899 124.564C271.735 124.16 271.369 123.929 270.801 123.87V123.158C271.58 123.199 272.201 123.457 272.664 123.932C273.068 124.336 273.271 124.802 273.271 125.329C273.271 125.868 273.062 126.234 272.646 126.428C272.506 126.492 272.315 126.524 272.075 126.524C271.835 126.524 271.618 126.437 271.425 126.261C271.237 126.079 271.144 125.871 271.144 125.637C271.144 125.402 271.17 125.229 271.223 125.118C271.275 125.007 271.34 124.916 271.416 124.846C271.492 124.775 271.574 124.72 271.662 124.679C271.75 124.638 271.829 124.6 271.899 124.564ZM270.801 131.438C271.516 131.332 272.043 130.881 272.383 130.084C272.482 129.861 272.57 129.636 272.646 129.407L273.376 129.627C273.048 130.758 272.512 131.514 271.768 131.895C271.492 132.041 271.17 132.141 270.801 132.193V131.438ZM268.234 127.676C268.234 129.973 268.847 131.227 270.071 131.438V132.237C268.964 132.214 268.041 131.818 267.303 131.051C266.523 130.225 266.134 129.132 266.134 127.772C266.134 126.571 266.497 125.528 267.224 124.644C267.974 123.729 268.923 123.231 270.071 123.149V123.923C269.192 124.128 268.624 124.872 268.366 126.155C268.278 126.595 268.234 127.102 268.234 127.676ZM277.63 130.611C277.63 130.887 277.75 131.086 277.99 131.209C278.102 131.268 278.222 131.32 278.351 131.367C278.485 131.408 278.614 131.464 278.737 131.534V132H274.642V131.534C274.771 131.464 274.899 131.408 275.028 131.367C275.163 131.32 275.283 131.268 275.389 131.209C275.629 131.086 275.749 130.887 275.749 130.611V120.908C275.749 120.592 275.632 120.381 275.397 120.275C275.292 120.223 275.172 120.182 275.037 120.152C274.902 120.117 274.765 120.064 274.624 119.994V119.458H277.63V130.611ZM279.678 124.081C279.197 124.081 278.758 124.263 278.359 124.626V123.668C278.875 123.316 279.473 123.141 280.152 123.141C280.938 123.141 281.582 123.352 282.086 123.773C282.631 124.23 282.903 124.849 282.903 125.628V130.611C282.903 130.881 283.026 131.08 283.272 131.209C283.378 131.268 283.495 131.32 283.624 131.367C283.753 131.408 283.876 131.464 283.993 131.534V132H280.592V131.367C280.592 131.262 280.615 131.183 280.662 131.13C280.709 131.071 280.759 131.016 280.812 130.963C280.958 130.805 281.031 130.635 281.031 130.453V125.593C281.031 124.585 280.58 124.081 279.678 124.081Z" fill="white"/>
</g>
<defs>
<clipPath id="clip0">
<rect width="360" height="640" fill="white"/>
</clipPath>
</defs>
</svg>
