<svg width="69" height="73" viewBox="0 0 69 73" fill="none" xmlns="http://www.w3.org/2000/svg">
<g clip-path="url(#clip0)">
<path d="M-17.516 11.0638L-16.6643 69.7243C-16.6483 70.8288 -15.74 71.7111 -14.6355 71.6951L38.0256 70.9305C39.1301 70.9145 40.0124 70.0061 39.9964 68.9017L39.1447 10.2412C39.1287 9.13673 38.2203 8.25439 37.1159 8.27042L-15.5453 9.03499C-16.6497 9.05103 -17.5321 9.95936 -17.516 11.0638Z" fill="#BC4242"/>
<path d="M-3.57834 -4.80704L-2.72667 53.8535C-2.71063 54.9579 -1.8023 55.8403 -0.697843 55.8242L51.9633 55.0597C53.0678 55.0436 53.9501 54.1353 53.9341 53.0308L53.0824 -5.62968C53.0664 -6.73413 52.158 -7.61647 51.0536 -7.60043L-1.60758 -6.83586C-2.71204 -6.81983 -3.59437 -5.91149 -3.57834 -4.80704Z" fill="#AE2121"/>
<path d="M10.3594 -20.6775L11.2111 37.983C11.2271 39.0875 12.1354 39.9698 13.2399 39.9538L65.901 39.1892C67.0055 39.1731 67.8878 38.2648 67.8718 37.1604L67.0201 -21.5002C67.0041 -22.6046 66.0958 -23.4869 64.9913 -23.4709L12.3302 -22.7063C11.2257 -22.6903 10.3434 -21.782 10.3594 -20.6775Z" fill="#862929"/>
</g>
<defs>
<clipPath id="clip0">
<rect width="69" height="72" fill="white" transform="translate(0 0.5)"/>
</clipPath>
</defs>
</svg>
