<svg width="32" height="29" viewBox="0 0 32 29" fill="none" xmlns="http://www.w3.org/2000/svg">
<g clip-path="url(#clip0)">
<path d="M62.6667 0H2C0.89543 0 0 0.89543 0 2V56C0 57.1046 0.89543 58 2 58H62.6667C63.7713 58 64.6667 57.1046 64.6667 56V2C64.6667 0.89543 63.7713 0 62.6667 0Z" fill="#BC4242"/>
<path d="M78.8334 14.5H18.1667C17.0621 14.5 16.1667 15.3954 16.1667 16.5V70.5C16.1667 71.6046 17.0621 72.5 18.1667 72.5H78.8334C79.938 72.5 80.8334 71.6046 80.8334 70.5V16.5C80.8334 15.3954 79.938 14.5 78.8334 14.5Z" fill="#AE2121"/>
</g>
<defs>
<clipPath id="clip0">
<rect width="32" height="29" fill="white"/>
</clipPath>
</defs>
</svg>
