<svg width="64" height="82" viewBox="0 0 64 82" fill="none" xmlns="http://www.w3.org/2000/svg">
<g clip-path="url(#clip0)">
<path d="M62.6667 -5H2C0.89543 -5 0 -4.10457 0 -3V51C0 52.1046 0.89543 53 2 53H62.6667C63.7713 53 64.6667 52.1046 64.6667 51V-3C64.6667 -4.10457 63.7713 -5 62.6667 -5Z" fill="#BC4242"/>
<path d="M78.8334 9.5H18.1667C17.0621 9.5 16.1667 10.3954 16.1667 11.5V65.5C16.1667 66.6046 17.0621 67.5 18.1667 67.5H78.8334C79.938 67.5 80.8334 66.6046 80.8334 65.5V11.5C80.8334 10.3954 79.938 9.5 78.8334 9.5Z" fill="#AE2121"/>
<path d="M95 24H34.3333C33.2287 24 32.3333 24.8954 32.3333 26V80C32.3333 81.1046 33.2287 82 34.3333 82H95C96.1046 82 97 81.1046 97 80V26C97 24.8954 96.1046 24 95 24Z" fill="#862929"/>
</g>
<defs>
<clipPath id="clip0">
<rect width="64" height="82" fill="white"/>
</clipPath>
</defs>
</svg>
