<svg width="58" height="59" viewBox="0 0 58 59" fill="none" xmlns="http://www.w3.org/2000/svg">
<g clip-path="url(#clip0)">
<path d="M22.3333 0H-41C-42.1046 0 -43 0.89543 -43 2V58.6667C-43 59.7713 -42.1046 60.6667 -41 60.6667H22.3333C23.4379 60.6667 24.3333 59.7713 24.3333 58.6667V2C24.3333 0.89543 23.4379 0 22.3333 0Z" fill="#BC4242"/>
<path d="M39.1666 15.1667H-24.1667C-25.2713 15.1667 -26.1667 16.0621 -26.1667 17.1667V73.8334C-26.1667 74.938 -25.2713 75.8334 -24.1667 75.8334H39.1666C40.2712 75.8334 41.1666 74.938 41.1666 73.8334V17.1667C41.1666 16.0621 40.2712 15.1667 39.1666 15.1667Z" fill="#AE2121"/>
<path d="M56 30.3333H-7.33331C-8.43788 30.3333 -9.33331 31.2287 -9.33331 32.3333V89C-9.33331 90.1046 -8.43788 91 -7.33331 91H56C57.1046 91 58 90.1046 58 89V32.3333C58 31.2287 57.1046 30.3333 56 30.3333Z" fill="#862929"/>
</g>
<defs>
<clipPath id="clip0">
<rect width="58" height="59" fill="white"/>
</clipPath>
</defs>
</svg>
